<svg id="Layer_1" data-name="Layer 1" xmlns="http://www.w3.org/2000/svg" viewBox="0 0 1080 648"><path d="M292.5,414.68a587.09,587.09,0,0,0,50.17-54.6q23.55-29.1,45.17-59.58t41.85-61.81q20.24-31.31,40.74-62.36,3.33-5,6.38-9.7c2-3.14,4.16-6.18,6.37-9.15q2.77-4.42,6.1-10c2.22-3.69,4.52-7.3,6.93-10.81a67.79,67.79,0,0,1,8-9.7,31.6,31.6,0,0,1,9.42-6.66,13.09,13.09,0,0,1,6.65-.55q3.87.55,3.33,5.54c0,.75-.56,1.67-1.66,2.77a11.65,11.65,0,0,0-2.22,2.78,132.73,132.73,0,0,0-8.87,14.69Q507,153,503.69,161.36a231.79,231.79,0,0,0-16.07,60.15q-3.89,30.77-8.32,61.8-2.22,12.76-3.88,24.95T471,332.65a281.17,281.17,0,0,1-16.08,56.54q-11.09,27.72-22.17,54.87,26.61-33.26,54.88-65.68T541.39,311A466.85,466.85,0,0,0,569.1,267a398.94,398.94,0,0,0,22.17-46.84q4.44-11.09,8-21.62t6.38-21.62A113.79,113.79,0,0,0,609,160.81q1.11-8.31-6.65-13.86a85.43,85.43,0,0,1-12.19-9.14q-4.45-4.17-5.55-13.59a44.46,44.46,0,0,1,2.77-20.5q3.89-10.53,12.75-15a45.28,45.28,0,0,1,19.13-6.38,34.93,34.93,0,0,1,18,3,37.18,37.18,0,0,1,14.14,11.64,40.55,40.55,0,0,1,7.48,18.3,113.88,113.88,0,0,1,.28,26.33,151.36,151.36,0,0,1-5.27,26.88,191.44,191.44,0,0,1-9.42,25.5,187.73,187.73,0,0,1-12.2,22.72q-11.09,18.86-22.17,37.42t-23.83,36.31a602,602,0,0,1-51.83,65.68q-28,30.76-54.6,62.92-23.28,27.17-48.23,53.49a274.25,274.25,0,0,0-42.12,57.93q-1.12,2.22-4.72,8.59t-7.48,11.92q-3.88,5.52-7.48,6.65t-4.71-7.21a46.43,46.43,0,0,1,0-14.41,91.59,91.59,0,0,1,3.32-14.14q2.21-6.91,5-14.13A116.7,116.7,0,0,0,377.86,494q3.33-13.31,6.93-26.88t6.38-26.89q2.2-10.51,3.32-20.78t2.22-21.35a591.16,591.16,0,0,1,10.81-61.52q6.93-29.94,15.24-61-19.41,28.83-40.18,56.82T339.06,387q-21.62,24.94-44.9,47.95T247.6,480.09q-17.19,16.1-35.48,32.71a128.16,128.16,0,0,0-28.82,37.69q-1.11,1.66-2.77,4.71a29.62,29.62,0,0,1-3.6,5.27,6.79,6.79,0,0,1-4.16,2.49q-2.22.27-4.44-3.6-2.78-5,0-13.58c1.85-5.73,3.33-10.06,4.44-13q5.53-18.29,12.75-35.75t15-35.2q10.53-22.17,21.9-43.24t23-43.23q15-28.27,28.27-57.1T298,258.92a273.88,273.88,0,0,0,12.48-37.69q4.69-18.84,10.25-37.69,8.31-28.81-.55-56-6.11-15.51-18.57-20a54.49,54.49,0,0,0-26.89-2.22,107.51,107.51,0,0,0-28.82,8.87,152,152,0,0,0-23.84,13.3q-33.25,23.28-59.59,59t-39.63,74a174.61,174.61,0,0,0-8.31,36.3,140.52,140.52,0,0,0,.55,37.42,71.61,71.61,0,0,0,6.37,20.79q4.71,9.7,15.8,14.13A50.39,50.39,0,0,0,167,372.56a88.7,88.7,0,0,0,28.55-10,66.59,66.59,0,0,0,14.13-10.81q6.36-6.36,11.92-13a78.29,78.29,0,0,0,7.2-8.87q4.44-6.09,8.87-6.09c4.07,0,5.63,1.85,4.72,5.54a43.37,43.37,0,0,1-5.83,12.47,135.42,135.42,0,0,1-9.7,13.31q-5.26,6.38-6.92,8a198.23,198.23,0,0,1-20.51,20.79,124.66,124.66,0,0,1-56,28,58.2,58.2,0,0,1-33.81-2.21Q90.73,403,80.75,387.8A84.24,84.24,0,0,1,68,353.16a151.09,151.09,0,0,1,0-40.75A231.52,231.52,0,0,1,77.15,272,247.2,247.2,0,0,1,93.23,233.7a279.35,279.35,0,0,1,21.34-34.64,386.81,386.81,0,0,1,24.66-29.94,317.18,317.18,0,0,1,28.83-28,303.31,303.31,0,0,1,31.87-23.83,203.76,203.76,0,0,1,34.37-18A246,246,0,0,1,267,89.86a156.19,156.19,0,0,1,35.76-3.61,100,100,0,0,1,34.09,6.38,63,63,0,0,1,27.16,20,91.39,91.39,0,0,1,17.18,31.88,129.9,129.9,0,0,1,5.27,34.92,159.66,159.66,0,0,1-3.61,36q-3.89,18-9.42,35.2a293.79,293.79,0,0,1-21.06,48.22q-12.76,23.28-27.44,46t-30.21,44.62Q279.2,411.38,264.23,433q-3.89,5-7.21,10.25t-6.65,9.7q11.08-9.42,21.34-19.12T292.5,414.68Z"/><path d="M501.78,473.63h20.44q-8.6,15.12-16.76,30.25t-17.38,29.43a46,46,0,0,0-2.55,4.91,39.55,39.55,0,0,0-2.66,7.36,12,12,0,0,0-.21,6.13q.72,2.46,4.81,1.23a43.3,43.3,0,0,0,10.12-8,91.91,91.91,0,0,0,8.17-10.12q3.78-5.42,7.46-10.84a90.32,90.32,0,0,1,8-10.11c1.08-1.09,2-1.5,2.65-1.23a4.37,4.37,0,0,1,1.43.82,9.15,9.15,0,0,1-1,1.84,139.73,139.73,0,0,0-10.42,14.1A172.13,172.13,0,0,1,503.31,544a77.88,77.88,0,0,1-12.37,12.26,39,39,0,0,1-15.74,7.36q-4.69.2-6.95-2.05a11.55,11.55,0,0,1-3.06-5.72,28.44,28.44,0,0,1-.72-7.36q.11-3.88.51-7.15c-1.5,1.63-3.44,3.65-5.82,6s-5,4.8-7.87,7.25a81.58,81.58,0,0,1-8.89,6.65,27,27,0,0,1-9,3.88,12.8,12.8,0,0,1-8.17-.82c-2.53-1.16-4.6-3.64-6.24-7.46a26.8,26.8,0,0,1-2.25-11.55,42.53,42.53,0,0,1,2.05-11.55,60.79,60.79,0,0,1,4.8-11c2-3.55,4-6.88,6-10a105.08,105.08,0,0,1,15.64-18.6,97.31,97.31,0,0,1,19.52-14.31,78.22,78.22,0,0,1,8.48-4,33.23,33.23,0,0,1,9.4-2.35,16.24,16.24,0,0,1,8.49,1.43q3.89,1.84,5.92,7.36c.82-1.49,1.64-2.93,2.46-4.29A43.45,43.45,0,0,0,501.78,473.63Zm-27,46.6a55.38,55.38,0,0,1,3-4.7q2.34-3.46,5-8a104.2,104.2,0,0,0,5-9.61,45.91,45.91,0,0,0,3.28-9.4,13.19,13.19,0,0,0-.11-7.15q-1-2.86-5.52-3.27a19,19,0,0,0-6.44,2.55,43,43,0,0,0-6.23,4.7A77.16,77.16,0,0,0,467,491.1q-2.67,3-5.11,5.63-4.91,6.54-9.61,13.49t-8.79,14.1l-3.07,5.62a63,63,0,0,0-3.27,7,33.19,33.19,0,0,0-1.94,7.26,9,9,0,0,0,1.13,6.24,5.34,5.34,0,0,0,3.78,3.06,9.57,9.57,0,0,0,4.8-.41,20.11,20.11,0,0,0,4.8-2.35,24,24,0,0,0,3.79-3A105.67,105.67,0,0,0,465.19,535,118.49,118.49,0,0,0,474.79,520.23Z"/><path d="M585.38,510.22q.61,1.42-1.43,4.7-4.1,5.73-7.36,10.12t-6.34,8.27q-3.06,3.9-6.23,7.77t-7.46,8.79q-2.46,2.46-5.83,5.32a47.16,47.16,0,0,1-7.15,5,24.57,24.57,0,0,1-7.77,2.86,12.94,12.94,0,0,1-7.67-.92q-4.9-2.46-6.33-6.65a20,20,0,0,1-.82-9.09,36,36,0,0,1,2.66-9.71q2-4.8,3.88-8.28a52.32,52.32,0,0,1,6.34-9.51c2.45-2.92,5-5.79,7.66-8.58s5.28-5.59,7.87-8.38a104.6,104.6,0,0,0,7.36-8.89,15.28,15.28,0,0,0-5.31.1,8.73,8.73,0,0,1-5.11-.51,28.52,28.52,0,0,1-3.68-1.23q-1.44-.62-3.48,1-5.92,9.21-11.75,19.22T515,531.17A159.07,159.07,0,0,1,500.55,549,77.78,77.78,0,0,1,483,563c-1.77.27-2.86-.18-3.27-1.33a3.88,3.88,0,0,1,.61-3.58,104,104,0,0,0,20.54-17.27,174.37,174.37,0,0,0,16.66-21.26q7.56-11.36,14-23.51t12.77-23.81a3.35,3.35,0,0,1,2.15-.11,8.35,8.35,0,0,1,2.25,1c.74.48,1.46,1,2.14,1.53a10.48,10.48,0,0,0,1.84,1.23,17.73,17.73,0,0,0,5.32,1.53,20.1,20.1,0,0,0,5.31-.1,35.25,35.25,0,0,0,6.85-1.95,27.5,27.5,0,0,1,6.64-1.73c1.64-.14,2.69.1,3.17.71a2.57,2.57,0,0,1,.41,2.25,9.68,9.68,0,0,1-1.23,2.86c-.61,1-1.19,1.95-1.73,2.76q-7.15,9-13.39,18.4t-12,19.42c-1.09,1.63-2.18,3.34-3.27,5.11s-2.11,3.58-3.07,5.42a30.81,30.81,0,0,0-2.25,5.62,17.25,17.25,0,0,0-.61,5.92,16.09,16.09,0,0,0,.82,4.71q.81,2.66,3.27,2.24,3.46-.6,7.66-4.39a93,93,0,0,0,8.69-9.1A137.67,137.67,0,0,0,572,524.12q4.18-6.14,7.67-11a24.71,24.71,0,0,1,2.35-3.17Q583.33,508.38,585.38,510.22Z"/><path d="M672.87,425.18q1-2,2.14-4.09a10.89,10.89,0,0,0,1.33-4.29,13.24,13.24,0,0,0-.2-2.45,2.26,2.26,0,0,1,.81-2.05,10.42,10.42,0,0,1,3.79-1.73,33.48,33.48,0,0,1,5.31-1c1.84-.2,3.64-.33,5.42-.4a26.85,26.85,0,0,1,4.29.1c2,.27,3.17,1.16,3.37,2.66a11.76,11.76,0,0,1-.51,5,24.93,24.93,0,0,1-2.35,5.42c-1,1.77-1.74,3.07-2.14,3.88q-11.46,20.44-23.21,40.17T648.13,507q-2.65,4.69-4.9,9.3c-1.5,3.06-3.07,6.17-4.7,9.3q-2.87,4.5-5.63,9a40,40,0,0,0-4.19,9.2,14.43,14.43,0,0,0-.41,3.48,6.81,6.81,0,0,0,.62,3.06,3.51,3.51,0,0,0,1.84,1.74,4.93,4.93,0,0,0,3.47-.31A82.23,82.23,0,0,0,644.35,543a124.87,124.87,0,0,0,9.4-10.53q4.39-5.52,8.38-11.14t7.26-10.73a14.71,14.71,0,0,1,1.84-1.95c.82-.74,1.64-.64,2.45.31.41.41.34,1.3-.2,2.66A226.11,226.11,0,0,1,654.26,539a99.3,99.3,0,0,1-25.14,22.08,17.39,17.39,0,0,1-9.09,1.63,9.88,9.88,0,0,1-7.67-4.7,17.45,17.45,0,0,1-2.35-8.48,32.7,32.7,0,0,1,.92-8.69,61.51,61.51,0,0,1-6.95,7.77l-7.56,7.15a66,66,0,0,1-8,6.34,19.59,19.59,0,0,1-9.6,3.47,12.24,12.24,0,0,1-7.67-1.12,13.87,13.87,0,0,1-5.11-4.81,21.08,21.08,0,0,1-2.76-6.95,24,24,0,0,1-.41-7.56A57.16,57.16,0,0,1,567,527.59a80.55,80.55,0,0,1,8.89-16.25,111.64,111.64,0,0,1,25.86-26.06,60.14,60.14,0,0,1,20.85-10.43c1.77-.27,3.65-.57,5.62-.92a10.45,10.45,0,0,1,5.62.52,7.88,7.88,0,0,1,3.79,3.16c.88,1.43,1.8,3,2.76,4.6Q657.13,454,672.87,425.18ZM598.05,548.44a161.65,161.65,0,0,0,23.1-29.23,114.87,114.87,0,0,0,14.31-34.14c-.28-3.54-1.6-5.58-4-6.13s-4.87.07-7.46,1.84a48.49,48.49,0,0,0-7.46,6.44q-3.37,3.58-6.44,7.46c-1.22,1.37-3,3.44-5.21,6.24s-4.67,6-7.26,9.5-5.18,7.29-7.76,11.24a97.18,97.18,0,0,0-6.55,11.55,44.07,44.07,0,0,0-3.57,10.43c-.62,3.2-.24,5.82,1.12,7.87a4.9,4.9,0,0,0,3.89,2.45,13.23,13.23,0,0,0,4.9-.51,18.21,18.21,0,0,0,4.81-2.25A22.79,22.79,0,0,0,598.05,548.44Z"/><path d="M730.3,510.22q.62,1.42-1.43,4.7-4.1,5.73-7.36,10.12t-6.33,8.27q-3.07,3.9-6.24,7.77t-7.46,8.79c-1.63,1.64-3.58,3.41-5.83,5.32a46.67,46.67,0,0,1-7.15,5,24.48,24.48,0,0,1-7.77,2.86,12.91,12.91,0,0,1-7.66-.92q-4.91-2.46-6.34-6.65a20.11,20.11,0,0,1-.82-9.09,36.31,36.31,0,0,1,2.66-9.71q2-4.8,3.88-8.28a52.84,52.84,0,0,1,6.34-9.51c2.45-2.92,5-5.79,7.67-8.58s5.28-5.59,7.87-8.38a106.53,106.53,0,0,0,7.36-8.89,15.34,15.34,0,0,0-5.32.1,8.74,8.74,0,0,1-5.11-.51,28.52,28.52,0,0,1-3.68-1.23c-1-.41-2.11-.07-3.47,1q-5.94,9.21-11.76,19.22t-12.47,19.52A158,158,0,0,1,645.47,549a77.78,77.78,0,0,1-17.58,14c-1.77.27-2.86-.18-3.27-1.33a3.88,3.88,0,0,1,.62-3.58,104.28,104.28,0,0,0,20.54-17.27,175.36,175.36,0,0,0,16.66-21.26,271.24,271.24,0,0,0,14-23.51q6.43-12.17,12.78-23.81a3.32,3.32,0,0,1,2.14-.11,8.35,8.35,0,0,1,2.25,1c.75.48,1.46,1,2.15,1.53a10.12,10.12,0,0,0,1.84,1.23,17.75,17.75,0,0,0,5.31,1.53,20.18,20.18,0,0,0,5.32-.1,35.16,35.16,0,0,0,6.84-1.95,27.57,27.57,0,0,1,6.65-1.73c1.63-.14,2.69.1,3.17.71a2.56,2.56,0,0,1,.4,2.25,9.9,9.9,0,0,1-1.22,2.86q-.93,1.55-1.74,2.76-7.16,9-13.39,18.4T697,520c-1.09,1.63-2.18,3.34-3.27,5.11s-2.11,3.58-3.06,5.42a29.44,29.44,0,0,0-2.25,5.62,17,17,0,0,0-.61,5.92,16.39,16.39,0,0,0,.81,4.71q.82,2.66,3.27,2.24,3.48-.6,7.67-4.39a94.17,94.17,0,0,0,8.69-9.1,139.83,139.83,0,0,0,8.68-11.44q4.2-6.14,7.67-11a24.71,24.71,0,0,1,2.35-3.17C727.81,508.89,728.94,509,730.3,510.22Z"/><path d="M745.63,482.62a107.56,107.56,0,0,1,13.8-7.26,43.26,43.26,0,0,1,15.23-3.57,27.82,27.82,0,0,1,13.39,2.45,18.06,18.06,0,0,1,9.09,9,25.84,25.84,0,0,1,1.43,9,38.14,38.14,0,0,1-1.12,9.5q-1.12,4.41-2.35,8.28a100.28,100.28,0,0,1-6.23,12.37,130.64,130.64,0,0,1-8.28,12.37,117.93,117.93,0,0,1-9,9.6A92.84,92.84,0,0,1,761.07,553a66.7,66.7,0,0,1-12,6.75,46.69,46.69,0,0,1-13.29,3.57,31,31,0,0,1-13.59-1.43,23.25,23.25,0,0,1-10.94-7.15,25.25,25.25,0,0,1-4.7-14.31,37,37,0,0,1,.51-5.83,53.34,53.34,0,0,1,1.33-6,79,79,0,0,1,14.41-25.45,107.6,107.6,0,0,1,22.59-20.54Zm-18.8,58.87c-.28,1.23-.51,2.39-.72,3.48a17.28,17.28,0,0,0-.31,2,9,9,0,0,0,1.13,4.6q1.13,1.95,4.6,3.58a10.12,10.12,0,0,0,7.36-.82c2.58-1.23,4.9-2.45,7-3.68-.14,0,0-.13.41-.41a2,2,0,0,1,1-.41,90.45,90.45,0,0,0,12.47-13A143,143,0,0,0,770.06,522a125.12,125.12,0,0,0,7.87-15.33A112.6,112.6,0,0,0,783,492.23a10.56,10.56,0,0,0,.61-2.45,21.26,21.26,0,0,0,.21-3.07,15,15,0,0,0-.92-5.31,4.72,4.72,0,0,0-3.58-3.07,11.67,11.67,0,0,0-6.85,1.43,43,43,0,0,0-6,3.68,101.26,101.26,0,0,0-13.8,12.47,128.25,128.25,0,0,0-11.95,14.92,114.08,114.08,0,0,0-9,15.54,59.24,59.24,0,0,0-4.9,14.3Z"/><path d="M848.45,475.26a17.81,17.81,0,0,1,8.38-2.55,14.37,14.37,0,0,1,7.56,1.84,17.39,17.39,0,0,1,5.93,5.52,20.53,20.53,0,0,1,3.27,8.27,41.18,41.18,0,0,1-2.14,20.86,72.67,72.67,0,0,1-10.12,18.6,84.33,84.33,0,0,1-14.82,16.45A109.41,109.41,0,0,1,828.21,557a53.17,53.17,0,0,1-8.38,4.09,40.27,40.27,0,0,1-9.4,2.45,26.66,26.66,0,0,1-9.3-.41,17.66,17.66,0,0,1-13-13.29,31.35,31.35,0,0,1-.41-10.12,50.29,50.29,0,0,1,2.35-10.32q1.74-5.1,3.58-9.2a153,153,0,0,1,11.24-22.38q6.54-10.73,13.08-21.57,6.75-11.43,13.49-22.48t13.29-22.49a26.89,26.89,0,0,0,2.76-4.7q1.13-2.44,2.55-5.31a16.65,16.65,0,0,0,2-5.11,16.59,16.59,0,0,0-.61-3.68c-.41-1.64-.21-2.59.61-2.86q3.27-.61,8.18-1.23a65.11,65.11,0,0,1,7.56-.61,25,25,0,0,0,3.68-.41c1.63-.27,2.59-.27,2.86,0a3.88,3.88,0,0,1,.61,3.37c-.27,1.43-.48,2.56-.61,3.37a44.33,44.33,0,0,1-4.19,10.74q-2.76,5-5.83,9.7-7.15,12.89-14.61,25.46t-15,25.44q3.06-2.66,6.64-5.41A68.52,68.52,0,0,1,848.45,475.26Zm-46.4,75.63q-.62,5.33,3,6.55a12,12,0,0,0,8.08-.41,20.49,20.49,0,0,0,9.5-6q4-4.39,7.46-8.9a173.42,173.42,0,0,0,12-17.88,154.52,154.52,0,0,0,9.51-19.32q.81-1.63,2.25-5.11a51.2,51.2,0,0,0,2.35-7.25,21.63,21.63,0,0,0,.61-7.06A5.15,5.15,0,0,0,854,481a7.86,7.86,0,0,0-4-.62,12,12,0,0,0-4.08,1.13,30.31,30.31,0,0,0-3.79,2.14,36.74,36.74,0,0,0-3.06,2.25A104.36,104.36,0,0,0,827,499a148.18,148.18,0,0,0-11.35,16.66,138.25,138.25,0,0,0-8.89,18A69.38,69.38,0,0,0,802.05,550.89Z"/><path d="M885.85,546.19q.61,4.71,3.27,6.24a9.89,9.89,0,0,0,6.24,1.12,24.67,24.67,0,0,0,7.25-2,41.67,41.67,0,0,0,6.14-3.27,67.17,67.17,0,0,0,11.55-9.1q5.82-5.62,10.93-11.45t9.2-10.93c2.72-3.41,4.91-6,6.54-7.77.95-1.09,1.6-1.33,1.94-.71a3.46,3.46,0,0,1,.1,2.55,31.1,31.1,0,0,1-4.08,7.46,110.36,110.36,0,0,1-7.36,9.3q-4.29,4.9-9.3,10t-9.92,9.4c-3.27,2.86-6.3,5.39-9.09,7.56a52.62,52.62,0,0,1-6.85,4.71,35.9,35.9,0,0,1-8.89,3.57,32.77,32.77,0,0,1-9.81,1.13,20.66,20.66,0,0,1-9-2.46,15.76,15.76,0,0,1-6.64-7.15,22.3,22.3,0,0,1-2.15-9.2,40.4,40.4,0,0,1,1-9.81,58,58,0,0,1,3.07-9.51,95.74,95.74,0,0,1,4.19-8.68,88,88,0,0,1,14.51-20.44,91.37,91.37,0,0,1,19.63-15.54,58.94,58.94,0,0,1,11.14-5.72,60.71,60.71,0,0,1,12-3.27,28.07,28.07,0,0,1,8.38-.41,8.23,8.23,0,0,1,6.74,4.29,9.79,9.79,0,0,1,1.64,6,20.42,20.42,0,0,1-1.43,6.23,26.24,26.24,0,0,1-3.17,5.73,40.74,40.74,0,0,1-4,4.7,53.48,53.48,0,0,1-11.14,9.2,106.64,106.64,0,0,1-12.57,6.74q-3.48,1.44-6.85,2.56t-7,2.15a39.32,39.32,0,0,1-4.9.61,6,6,0,0,0-4.3,1.84,11.07,11.07,0,0,0-2.55,4.9,39.78,39.78,0,0,1-1.94,5.52,32.68,32.68,0,0,0-2.15,6.85A22.4,22.4,0,0,0,885.85,546.19Zm10-30.66a24.57,24.57,0,0,0,13-4.5A125.76,125.76,0,0,0,920,502.24a54,54,0,0,0,5-4.8,40.24,40.24,0,0,0,4.19-5.42c.81-1.49,1.77-3.37,2.86-5.62a12,12,0,0,0,1.43-6c-.14-1.5-.61-2.38-1.43-2.65a4.56,4.56,0,0,0-3.07.3,19,19,0,0,0-4,2.25,48.32,48.32,0,0,0-4,3.17q-1.85,1.63-3.27,3.17c-1,1-1.57,1.67-1.84,1.94a107.9,107.9,0,0,0-10.73,13Q900.37,508.39,895.87,515.53Z"/><path d="M950,546.19c.41,3.14,1.49,5.22,3.27,6.24a9.87,9.87,0,0,0,6.23,1.12,24.81,24.81,0,0,0,7.26-2,42,42,0,0,0,6.13-3.27,66.79,66.79,0,0,0,11.55-9.1q5.82-5.62,10.94-11.45t9.19-10.93q4.1-5.11,6.55-7.77c1-1.09,1.6-1.33,1.94-.71a3.51,3.51,0,0,1,.1,2.55,30.84,30.84,0,0,1-4.09,7.46,108.35,108.35,0,0,1-7.36,9.3q-4.29,4.9-9.3,10t-9.91,9.4c-3.27,2.86-6.31,5.39-9.1,7.56a52,52,0,0,1-6.85,4.71,35.9,35.9,0,0,1-8.89,3.57,32.77,32.77,0,0,1-9.81,1.13,20.66,20.66,0,0,1-9-2.46,15.78,15.78,0,0,1-6.65-7.15,22.29,22.29,0,0,1-2.14-9.2,39.91,39.91,0,0,1,1-9.81,57.93,57.93,0,0,1,3.06-9.51,93.18,93.18,0,0,1,4.2-8.68,88,88,0,0,1,14.51-20.44,91.06,91.06,0,0,1,19.62-15.54,59.25,59.25,0,0,1,11.14-5.72,60.9,60.9,0,0,1,12-3.27,28.09,28.09,0,0,1,8.38-.41,8.24,8.24,0,0,1,6.75,4.29,9.78,9.78,0,0,1,1.63,6,20.13,20.13,0,0,1-1.43,6.23,25.83,25.83,0,0,1-3.17,5.73,39.73,39.73,0,0,1-4,4.7,53.74,53.74,0,0,1-11.14,9.2,106,106,0,0,1-12.58,6.74q-3.47,1.44-6.84,2.56t-7,2.15a39.5,39.5,0,0,1-4.91.61,6,6,0,0,0-4.29,1.84,11,11,0,0,0-2.56,4.9,38.51,38.51,0,0,1-1.94,5.52,33.27,33.27,0,0,0-2.15,6.85A22.1,22.1,0,0,0,950,546.19Zm10-30.66a24.54,24.54,0,0,0,13-4.5,122.92,122.92,0,0,0,11.14-8.79,54,54,0,0,0,5-4.8,38.67,38.67,0,0,0,4.19-5.42c.82-1.49,1.77-3.37,2.86-5.62a11.88,11.88,0,0,0,1.43-6c-.13-1.5-.61-2.38-1.43-2.65a4.54,4.54,0,0,0-3.06.3,18.77,18.77,0,0,0-4,2.25,46.52,46.52,0,0,0-4,3.17q-1.85,1.63-3.28,3.17c-.95,1-1.56,1.67-1.84,1.94a107.9,107.9,0,0,0-10.73,13Q964.55,508.39,960.05,515.53Z"/><path d="M764.23,285.81c0-6.76.4-12.83-.09-18.87-.93-11.3,4.05-19.84,17.8-25.86,7.81-3.41,8.54-9.54,4.49-15.42-3.64-5.27-13.38-7.6-20.4-4.32a18.54,18.54,0,0,0-8.47,8.41c-2.1,4.47-3.15,9.41-11.51,7.67-7.78-1.62-7-6.58-5.6-11.18,3.23-10.47,15.12-18.18,29.35-19.12,13.32-.88,27.63,5.24,33.28,14.22s4,22.22-7.32,27.45c-14.75,6.8-15.26,16-14.34,26.46.28,3.15.05,6.32.05,10.47,29.21,2.41,43.68,18.32,59,34.28a79,79,0,0,0,27.65,18c32.25,12.46,65.53,23.46,98.27,35.23,10.55,3.8,21.38,7.52,30.86,12.55,15.57,8.26,19.82,21.34,13,34.59-4.25,8.25-8.68,9.52-19.48,5.26q-103.56-40.77-207-81.75c-7.74-3.09-13.39-3.36-21.37-.18-68.19,27.24-136.68,54.08-205.09,81-14.29,5.63-18.84,4.11-23.16-7.79-4.43-12.19-.64-22.93,13.07-30.41,9.65-5.27,20.74-9.24,31.63-13.12,28.63-10.18,57.48-20,86.28-29.95,20.23-7,36.79-16.64,48.18-31.34C724.2,298,740.31,288.19,764.23,285.81Z"/></svg>